<svg xmlns="http://www.w3.org/2000/svg" width="63" height="75.1" viewBox="0 0 63 75.084">
    <path d="M60.2 22.2H35.8c13.6-6.8 14.6-11 14.1-13.5-1.1-4-5.6-7-9.8-5.3-5.5 2-7 10.2-8.5 16.2-2-6-3.7-13.7-8-17.6a7.2 7.2 0 0 0-5.7-2c-4 .4-9.7 5.3-7.3 10.9 2.2 5.3 9.5 8.6 14.3 11.3H3A2.8 2.8 0 0 0 0 25.1v11.1c0 1.6 1.3 2.9 2.8 2.9h.3v36h57V39c1.6 0 2.9-1.3 2.9-2.8V25c0-1.6-1.3-2.9-2.8-2.9zM41.8 6c2-.3 4.9 1.3 5.1 3.1.4 2.8-3.3 5.2-5 6.4-2.5 1.7-4.8 2.6-7.1 4 .8-3.7 2.5-12.9 7-13.5zm-22.6 9.8C17 14.3 12.8 11.3 13 8c.1-3.5 5.6-6.4 8.7-3.8 3.8 3.3 5.6 11 7 16.4-3.2-1.6-6.3-2.8-9.4-4.9zm6 56.4H6v-33h19.1v33zm0-36H3V25.2h22.1v10.9zm10 36H28V25.2h7v47zm22 0H38v-33h19v33zm2.8-36H38V25.2h22v10.9z"/>
</svg>
