<svg xmlns="http://www.w3.org/2000/svg" width="76.2" height="69" viewBox="0 0 76.166 68.959">
    <path d="M72 46H4.2C1.9 46 0 48 0 50.3v3.4C0 56.1 2 58 4.3 58h1v1A10 10 0 0 0 15 69h46A10 10 0 0 0 71 59v-1h1c2.3 0 4.2-2 4.2-4.3v-3.4c0-2.3-2-4.3-4.3-4.3zm-4 13a7 7 0 0 1-7 7H15.1a7 7 0 0 1-6.9-7v-1H68v1zm5.2-5.3c0 .7-.6 1.3-1.3 1.3H4.3c-.7 0-1.3-.6-1.3-1.3v-3.4c0-.7.6-1.3 1.3-1.3h67.6c.7 0 1.3.6 1.3 1.3v3.4zM16.2 37.9l5.4 4 5.5-4 5.5 4 5.5-4 5.4 4 5.5-4 5.5 4 5.5-4 5.5 4 6.3-4.7-1.7-2.4-4.6 3.3-5.5-4-5.5 4-5.5-4-5.5 4-5.4-4-5.5 4-5.5-4-5.5 4-5.4-4-5.5 4L6 34.8l-1.8 2.4 6.4 4.7zM70.9 31v-3C70.2 12.6 55.8 0 38.1 0 20.4 0 5.9 12.5 5.2 28v3H71zM38 3c16 0 29.1 11.2 29.8 25H8.2C9 14.3 22.1 3 38.1 3z"/>
    <circle cx="38.1" cy="15" r="2"/>
    <circle cx="30.1" cy="10.1" r="2"/>
    <circle cx="46.1" cy="10.1" r="2"/>
</svg>
