<svg xmlns="http://www.w3.org/2000/svg" width="74.7" height="72.3" viewBox="0 0 74.695 72.346">
    <path d="M29.5 65.3h16V41.4h-16v24zm13-2.9h-10v-18h10v18z"/>
    <path d="M72.6 39.4l2.1-2-10-10V.4H51v13.2L37.3 0 0 37.4l2 2 8-7.8v37.8H6v3h63.8v-3h-5V31.6l7.8 7.8zM54 3.4h8v21.1l-8-8v-13zm8 66h-49V28.7L37.2 4.2 62 28.7v40.7z"/>
    <path d="M29.8 27.2a7.8 7.8 0 1 0 15.5 0 7.8 7.8 0 0 0-15.5 0zm7.7-5a5 5 0 1 1 0 10 5 5 0 0 1 0-10zM16.9 41.4h3v3.9h-3zM22.8 41.4h3v3.9h-3zM16.9 47.4h3v3.9h-3zM22.8 47.4h3v3.9h-3zM48.8 41.4h3v3.9h-3zM54.8 41.4h3v3.9h-3zM48.8 47.4h3v3.9h-3zM54.8 47.4h3v3.9h-3z"/>
</svg>
