<svg version="1" xmlns="http://www.w3.org/2000/svg" width="101.7" height="84" viewBox="42.185 0 101.668 83.984">
    <path fill="#23A9E1" d="M42.2 0l50.6 59 51-59z"/>
    <path fill="#491213" d="M93.1 0h-51v22.5L92.9 84l.3-.4 50.8-60.4V0H93zm0 57l-.3.5-47-55.7h94.5L93.1 57z"/>
    <path fill="#491213" d="M92.8 57.5l.3-.4 27.6-32.3c-7 1-11.9 6-18.6 5-3.4-.6-3.5-2.6-4.5-4.5-.7-1.5-2-1.3-3.5-2-1.4-.5-2.3-1.7-5.1-1-2.6.6-2.8 4.5-6 4.3-1.7-.1-1.8-2.5-4.2-5.6-6.3-7.5-12.2-6.5-16.3.5l30.3 36z"/>
    <path fill="#FFF" d="M65.5 32.2c.5.7.9 1.3.8 2.2 0 .5-1 1.5-.3 1.8l2.2-2.8c-.6-.2-5.3-5.9-5.4-6.5l-3.2 1.7c.2.7 1.3 0 1.9 0 .8.1 1.4.6 2 1.2-1.8 1.5-6 5-6.4 5.1-.3 0-1.1-.6-1.1 0 0 .2.8 1 1 1.2l2.2 2.6c.6-.3 0-.7.2-1.2.3-.4 5-4.3 6-5.3zM60.2 25.3c.4-.1.6.4 1 0l-2.5-3c-.4-.4-.8-1-.7 0 0 .6-6.1 5.7-6.5 5.8-.5.2-.8-.4-1.1.1l2.2 2.6.7 1c.4.3.2-.8.3-.7-.1-.5.5-1 .8-1.2 1.6-1.4 5.4-4.6 5.8-4.6zM51.4 24.4c-1.7.5-3.6-.2-4.2-2-.5-2 .6-3.8 2-4.9 1.5-1 3.7-1 4.5.8.3.8.1 1.8-.1 2.5-.2.6-.6 1 0 1.3l2.6-3.2c-1-.7-1.5-1.7-2.3-2.6-.9-1.1-2-2.1-3.5-2.3-2.9-.4-5.6 2.5-5.8 5.2-.1 1.5.4 2.9 1.3 4 .7 1 1.8 1.6 2.4 2.8.3 0 2.7-1 3.3-1.3l-.2-.3c-.7.2 0 0 0 0zM90.7 60.8c-1.1-.8-4-4.7-4.6-5.4l-.3-.4-.2.2c-.2.2.1.6 0 .9-.9 1.2-5.8 5-6.1 5.1-.6.4-1.2-.1-1.5.4.7.8 2.8 3.5 3 3.5.5.1.2-.8.2-1l3.6-3.2c.3-.3.7.5.9.7.3.5.5 1 .3 1.6-.1.4-.7 1-.3 1.2l2.6-3c.3-.4-.5 0-.4-.1-.4.1-.7.2-1 0-.2-.1-1.2-1.2-1-1.2.4-.4.9-1 1.4-1.1.9-.3 1.6 1.5 1.8 2l-.1 1.8c-.1.4-.5.7 0 1l2.1-3h-.4c-.1-.1.2 0 0 0zM80.5 56.6c2.2-1.8 2.5-5 .8-7.3a5.4 5.4 0 0 0-7.8-1 5.3 5.3 0 0 0-.8 7.3c2 2.6 5.2 2.9 7.8 1 1.2-1-.1.1 0 0zM80 52c-.6 1.5-2.2 3-3.7 3.6-1.8.8-3.1-.8-2.4-2.5.7-1.5 2.2-3 3.8-3.7 1.8-.7 3 .9 2.3 2.6-.3.9.1-.2 0 0zM74 42c.5 0 1 .6 1.3 0a867 867 0 0 0-2.2-2.6c-.6.3 0 .6-.2 1s-2.6.8-3.2.9c.2-.7 1-2.6 1.2-2.8.5-.5.9.4 1.3-.2l-2.8-3.2c-.3-.4-.5-1-1-.7V36c-.1.2-1 3.7-2 4.5-.5.4-2.2 2-2.7 2-.5.3-.8-.5-1.2 0l2.5 3c.1.1.6.9.8.9.5 0 0-.9 0-1 .2-.5 2.6-2.8 3.6-3 1.4-.2 3.2-.7 4.7-.5.3 0-.4 0 0 0zM111.4 52.4c.2.7.3 1.4.2 2-.1 1-1 3-2.2 2.4-1.1-.6-2.2-1.7-3.2-2.6.8-.9 1.6-1.7 2.9-1.2.4 0 .7 0 .3-.3-.4-.2-3.1-2-3.3-1.8-.2.3.6.9.3 1.5l-1 1.2c-.7-.6-1.9-1.3-1-2.3.5-.6 1.2-1.1 2-1.3.6-.1 2 .4 2-.2l-3.2-1.6c.2.8-3.3 4.5-4.1 5.5-.1.1-.7.6-.7.8 0 .4.6 0 .7 0 .5-.1 6.8 5.1 7 5.5 0 .3-.3.6 0 .7 0 0 .1.3.2.2.4-.4 4.5-6 5.3-6.2l-2.3-3.6c-.6.2 0 1 0 1.3zM105.2 59.2c-2-1.4-5.6 1.2-6.1 1.5-1 .5-1.8-.6-1.2-1.5.4-.8 1.3-1.3 2.3-1.3.2 0 1.3.2 1.4 0 .2-.2.3-.2 0-.3l-2.5-1.8c-.2 1-1.4 1.8-2 2.5-.9.8-1.6 2-1.6 3.1a3 3 0 0 0 1.7 2.7c1.1.6 2.3.1 3.3-.5.6-.4 1.3-.9 2-1.2 1-.5 2.2 0 1.9 1.3-.3 1-1.4 2-2.4 2.3-.6.2-1.3.1-1.9 0-.4-.2-1-.8-1.2-.2l3.5 2.6c0-.8.5-1.1 1-1.6.8-.7 1.5-1.3 2-2.1 1.2-1.7 1.6-4.1-.2-5.5zM105.2 59.2c1 .5-.6-.5 0 0zM134.5 21.8zM142 19.6c-.8.8-8.5-2.3-9-2.7-.4-.2-.4-1.4-.8-.9l-1.2 1.5-1.2 1.5c-.3.3-.6.5 0 .7.8-.4 5.3 7.4 5 8.5-.8.4-7-5-7.1-5.4-.1-.2.2-1-.3-1-.2 0-.7 1-.8 1.1l-1 1c.4.6.6 0 1 .1.4 0 1.9 1.3 2.3 1.7h-3c-.9.2-.4-.6-1-.8l-2.3 2.7-1.3 1.6v.1c.4.3.2.2.6 0 .5-.1 6.6 5 6.8 5.2.4.5-.2 1 .4 1.3l1.8-2.2c.1-.1.2-.1 0-.2-.4-.4-.4.2-1 .1-.5 0-4.4-3.3-5.9-4.6l8.2-.3c.3 0 1.2 1 1.1 1.2 0 .4-.5.6 0 .8l1.5-1.7.2-.3c.1 0 .2-.1.2-.3l.2-.2c.4-.4 1.8-2 1.6-2.1-.4-.4-.6.5-1.2 0-.4-.3-1.3-1.9-1.5-2.2-.3-.5.6-1 1-1.1.7-.5 3.2-1.2 3.5.3 0 .3-.3.5-.1.7l.2.2 3.3-4-.3-.3zm-7.5 2.2c.1 0 .2-.1 0 0l-1 .7L132 20l3.5 1.4-1 .5zM124.8 33c-2.4-2-5.6-1.4-7.6.8a5.4 5.4 0 0 0 .6 7.6c2.4 2 5.7 1.5 7.6-.8a5.3 5.3 0 0 0-.6-7.6zm-.3 6.6c-1.2 1.3-3.4.1-4.5-.7-1.2-.8-3.1-2.6-1.9-4.1 1-1.3 3.2-.2 4.2.5 1.2.8 3.4 2.6 2.3 4.2 0 0 .1-.1 0 .1z"/>
    <path fill="#FFF" d="M124.8 33c1.2 1-.3-.2 0 0zM124.5 39.6l.1-.1-.1.1zM118.2 42.1c.1.1.3.2 0 0-2.9-2.2-6.2-1.5-8.5 1.1l-3 3.6c.4.5.8-.1 1.4.2.4.2 6.2 5 6.3 5.3.2.5-.3.6.1.9.2.1 4.6-5.2 5-6.2.7-1.7.1-3.7-1.3-4.9zM117 49l-.7.6c-.3.3-6.4-4.7-6.2-5 .9-.8 2.6-1.5 3.6-1.2 2.2.5 5.2 3.2 3.3 5.6z"/>
    <path fill="#491213" d="M92.8 57.5l.3-.4 27.6-32.3c-7 1-11.9 6-18.6 5-3.4-.6-3.5-2.6-4.5-4.5-.7-1.5-2-1.3-3.5-2-1.4-.5-2.3-1.7-5.1-1-2.6.6-2.9 4.5-6 4.3-1.7-.1-1.8-2.5-4.2-5.5-6.3-7.6-12.2-6.6-16.3.4l30.3 36z"/>
    <g>
        <path fill="#23A9E1" d="M88.7 71l4-6.6 4 6.5-4 6.5z"/>
    </g>
    <g>
        <path fill="#FFF" d="M65.5 32.3c.5.6.9 1.2.8 2 0 .7-1 1.6-.3 2l2.2-3c-.6 0-5.3-5.8-5.4-6.4l-3.2 1.8c.2.6 1.3 0 1.9 0 .8 0 1.4.6 2 1.2-1.8 1.4-6 5-6.4 5-.3 0-1.1-.6-1.1 0 0 .2.8 1 1 1.2l2.2 2.6c.6-.2 0-.7.2-1.2.3-.4 5-4.3 6-5.2zM60.2 25.3c.4-.1.6.4 1 0l-2.5-3c-.4-.4-.8-.9-.7 0 0 .7-6.1 5.7-6.5 5.8-.5.2-.8-.4-1.1.1l2.2 2.7.7.8c.4.4.2-.6.3-.5-.1-.6.5-1 .8-1.3 1.6-1.3 5.4-4.6 5.8-4.6zM51.4 24.4c-1.7.5-3.6-.2-4.2-2-.5-2 .6-3.8 2-4.9 1.5-1 3.7-1 4.5.9.3.8.1 1.7-.1 2.5-.2.5-.6 1 0 1.3l2.6-3.3c-1-.7-1.5-1.7-2.3-2.6-.9-1.1-2-2.1-3.5-2.3-2.9-.4-5.6 2.5-5.8 5.2-.1 1.5.4 2.9 1.3 4 .7 1 1.8 1.7 2.4 2.8.3 0 2.7-1 3.3-1.3l-.2-.3c-.7.2 0 0 0 0zM90.7 60.8c-1.1-.8-4-4.7-4.6-5.4l-.3-.4-.2.2c-.2.2.1.6 0 .9-.9 1.2-5.8 5-6.1 5.2-.6.3-1.2-.2-1.5.3l3 3.6c.5 0 .2-.9.2-1 .2-.4 2.7-2.5 3.6-3.3.3-.2.7.5.9.8.3.5.5 1 .3 1.5-.1.4-.7 1-.3 1.2l2.6-3c.3-.3-.5 0-.4-.1-.4.2-.7.2-1 0-.2-.1-1.2-1.1-1-1.2.4-.4.9-1 1.4-1.1.9-.2 1.6 1.5 1.7 2.1.2.6.2 1.2 0 1.8-.2.3-.5.7 0 .9l2.1-3h-.4c-.1-.1.2 0 0 0zM80.5 56.6c2.2-1.8 2.5-5 .8-7.3a5.4 5.4 0 0 0-7.8-1 5.3 5.3 0 0 0-.8 7.3c2 2.6 5.2 2.9 7.8 1 1.2-1-.1.1 0 0zM80 52c-.6 1.5-2.2 3-3.7 3.7-1.8.7-3.1-.9-2.4-2.6.7-1.5 2.2-3 3.8-3.7 1.8-.7 3 .9 2.3 2.6-.3.9.1-.2 0 0zM74 42c.5.1 1 .6 1.3 0l-2.2-2.6c-.6.3 0 .6-.2 1s-2.6.8-3.2.9c.2-.6 1-2.6 1.2-2.8.5-.5.9.4 1.3-.2l-2.8-3.2c-.3-.4-.5-1-1-.7V36c-.1.3-1 3.7-2 4.5-.5.4-2.2 2-2.7 2-.5.3-.8-.5-1.2 0l2.5 3 .8 1c.5 0 0-1 0-1.2.2-.4 2.6-2.7 3.6-2.8 1.4-.2 3.2-.7 4.7-.6.3 0-.4 0 0 0z"/>
    </g>
    <g>
        <path fill="#DC6243" d="M67.8 22.9c-4-.2-2.4-4 .4-4.8 2.6-.8 8 1.7 9.8 3.4-2.8.8-6.4.7-9.4.8-.2-3-1-2-.8.6z"/>
    </g>
    <g>
        <path fill="#DC6243" d="M68.8 27.7c-2-1.6-1.4-5.2 1.8-4.1 4 2-.9 3.2-1.8 4.1z"/>
    </g>
    <g>
        <path fill="#DC6243" d="M77.3 35.4c-8.6 0-2.8-13.3.1-12.5 3.4 1 3 12.6-.1 12.5z"/>
    </g>
    <g>
        <path fill="#DC6243" d="M83.4 31c-.8 2.6-2.4 3-2.2 0 .2-3.5 2.5-2.6 5-4 2-1.1 3-5.2 6.6-2.7 1.5 1 3.3.1 3.8 1.8 0-.1-4.5 10.3-2 10.3-5 0-2.8-6-.9-9.9-1.8.9-4.8 6.7-2.4 7.6-1.2 1.7-5.1 4-7.2 2.3-1.5-1.2-.7-3.3-.7-5.3z"/>
    </g>
    <g>
        <path fill="#DC6243" d="M87.5 40.7c-3.5 1-8.1-1.2-2.5-2.3 3.5-.7 7.2.7 2.5 2.3.1 0-.1 0 0 0z"/>
    </g>
    <g>
        <path fill="#DC6243" d="M91.9 40.6c-.8-1.7.5-3.7 2.7-2.2 1.8 1.2-.9 3-2.7 2.2z"/>
    </g>
    <g>
        <path fill="#DC6243" d="M89 45.2c-2.5-.7-10.6-.5-5.3-2.7 1.7-.7 10.2 0 5.2 2.7z"/>
    </g>
    <g>
        <path fill="#DC6243" d="M92.1 44.9c0-1-.5-2.7 1.4-2 2.2.9-1.4 2.7-1.4 2 0 0 0-.2 0 0z"/>
    </g>
    <g>
        <path fill="#DC6243" d="M99.4 48.5c-1.5-1.2-3-1.3-4.3 0-1.8-3.3-8.3-2.2-11.3-2.6 1.6 4 14.8 4.8 15.6 2.6z"/>
    </g>
    <g>
        <path fill="#DC6243" d="M97.5 51c-3.2-.2-6.7-.6-9.7 0 1.9.5 6.4 1.8 2.2 3 1.5 2.1 4 2 5.6 0-.7-.2-1-.6-1.6-1 1.7-.3 3.3-1.2 3.5-2z"/>
    </g>
    <g>
        <path fill="#DC6243" d="M101 47c-5.2-3-3.9-5.3.4-7.5 2.3-1.1 7.3-5.2 9.5-3.9L101 47.1z"/>
    </g>
    <g>
        <path fill="#F49774" d="M97.3 39.8c-4.5-4.6 6.7-4.2 8.5-5.8 1.3.4 10.7-8.3 13-7.7-1.6 2-5.2 8.1-7.7 8.1-2 0-4-.3-5.5 1.1-2.2 2-6 3.1-8.3 4.3z"/>
    </g>
    <g>
        <path fill="#F4B1A4" d="M98.8 34.2c-2.5 1.3-4.8-4-.6-3.4 2.8.3 5.7-.3 8.4.2a8.7 8.7 0 0 1-7.8 3.2z"/>
    </g>
    <g>
        <path fill="#FFF" d="M111.4 52.5c.2.6.3 1.3.2 2-.1.8-1 2.9-2.2 2.3-1.1-.6-2.2-1.7-3.2-2.5.8-1 1.6-1.8 2.9-1.3.4 0 .7 0 .3-.3-.4-.2-3.1-2-3.3-1.8-.2.3.6.9.3 1.5l-1 1.2c-.7-.6-1.9-1.3-1-2.3.5-.6 1.2-1.1 2-1.3.6-.1 2 .4 2-.2l-3.2-1.6c.2.8-3.3 4.5-4.1 5.5-.1.1-.7.6-.7.8 0 .4.6 0 .7 0 .5-.1 6.8 5.2 7 5.5 0 .3-.3.6 0 .8 0 0 .1.2.2.1.4-.4 4.5-6 5.3-6.2l-2.3-3.6c-.6.2 0 1 0 1.4zM105.2 59.2c-2-1.4-5.6 1.2-6.1 1.5-1 .5-1.8-.5-1.2-1.5.4-.8 1.3-1.2 2.3-1.3.2 0 1.3.2 1.4 0 .2-.2.3-.2 0-.3l-2.5-1.7c-.2 1-1.4 1.7-2 2.4-.9.8-1.6 2-1.6 3.2a3 3 0 0 0 1.7 2.6c1.1.6 2.3.1 3.3-.5.6-.4 1.3-.9 2-1.2 1-.4 2.2 0 1.9 1.3-.3 1-1.4 2-2.4 2.3-.6.2-1.3.1-1.9 0-.4-.2-1-.8-1.2-.2l3.5 2.6c0-.8.5-1.1 1-1.6.8-.6 1.5-1.3 2-2.1 1.2-1.7 1.6-4-.2-5.5zM105.2 59.2c1 .6-.6-.5 0 0zM134.5 21.9zM142 19.6c-.8.8-8.5-2.3-9-2.7-.4-.1-.4-1.3-.8-.9l-1.2 1.5-1.2 1.5c-.3.3-.6.5 0 .7.8-.4 5.3 7.4 5 8.5-.8.4-7-5-7.2-5.4 0-.2.3-1-.2-1-.2 0-.7 1-.9 1.1l-.8 1c.3.6.5 0 1 .1.3.1 1.8 1.4 2.2 1.7l-3 .1c-.9.1-.4-.7-1-1-.7 1-1.5 2-2.3 2.8l-1.3 1.6v.2c.4.2.2.1.6 0 .5-.2 6.6 4.9 6.8 5.2.4.4-.2 1 .4 1.2l1.8-2.2c.1-.1.2-.1 0-.2-.4-.4-.4.2-1 .1-.5 0-4.4-3.3-5.9-4.6l8.2-.3c.3 0 1.2 1 1.1 1.3 0 .3-.5.5 0 .7l1.5-1.7.2-.3.2-.2.2-.2c.4-.5 1.8-2 1.7-2.2-.5-.4-.7.5-1.3 0-.4-.3-1.3-1.8-1.5-2.2-.3-.5.6-1 1-1.1.8-.5 3.2-1.2 3.5.3 0 .3-.3.6-.1.7l.2.2 3.3-4-.3-.3zm-7.5 2.2c.1 0 .2-.1 0 0l-1 .8c-.4-1-1-1.8-1.5-2.7l3.5 1.5c-.3 0-.6.2-1 .4zM124.8 33c-2.4-2-5.6-1.4-7.6.8a5.4 5.4 0 0 0 .6 7.7c2.4 1.9 5.7 1.4 7.6-.9a5.3 5.3 0 0 0-.6-7.6zm-.3 6.6c-1.2 1.3-3.4.1-4.5-.7-1.2-.8-3.1-2.5-1.9-4 1-1.4 3.2-.3 4.2.4 1.2.8 3.4 2.6 2.3 4.2 0 0 .1-.1 0 .1z"/>
        <path fill="#FFF" d="M124.8 33c1.2 1-.3-.2 0 0zM124.5 39.7l.1-.2-.1.2zM118.2 42.1c.1.1.3.3 0 0-2.9-2.1-6.2-1.5-8.5 1.1l-3 3.6c.4.5.8-.1 1.4.2a99 99 0 0 1 6.3 5.3c.2.5-.3.6.1 1 .2 0 4.6-5.3 5-6.3.7-1.7.1-3.6-1.3-4.9zM117 49l-.7.6c-.3.3-6.4-4.6-6.2-4.9.9-1 2.6-1.6 3.6-1.3 2.2.6 5.2 3.3 3.3 5.6z"/>
    </g>
</svg>
