<svg version="1" xmlns="http://www.w3.org/2000/svg" width="459.8" height="79.8" viewBox="0 0 459.754 79.805">
    <g fill="#FFF">
        <path d="M44.5 21.7c-3.6-3-8.2-5-13-5-3.5 0-8.3 2.2-8.3 6.3 0 4.4 5.3 6 8.7 7.2l5 1.5c10.3 3 18.4 8.3 18.4 20.4 0 7.5-1.8 15.1-7.8 20.2-5.8 5-13.7 7-21.2 7-9.4 0-18.7-3.2-26.3-8.5L8.3 55a26.7 26.7 0 0 0 17.3 7.7c4.6 0 9.4-2.3 9.4-7.5 0-5.5-7.6-7.4-11.8-8.6C11 43.3 3 40.1 3 25.7 3 10.3 13.8.4 28.8.4c7.5 0 16.8 2.4 23.4 6.1l-7.7 15.1zM91.8 19v12.5h22v16.4h-22v13H115v16.4H72.4V2.5H115V19H91.8zM129.4 2.5H157c20.9 0 38 16.4 38 37.4s-17.2 37.4-38 37.4h-27.6V2.5zM149 60.8h4.3c11.7 0 21.6-6.3 21.6-20.9 0-13.4-8.9-21-21.4-21H149v42zM286.9 38.5a39.8 39.8 0 0 1-41.4 41.3c-24 0-41.4-17-41.4-41.3C204 16 223.9 0 245.5 0c21.5 0 41.4 15.9 41.4 38.5zm-62.6.1c0 13 9.6 22.3 21.2 22.3s21.1-9.4 21.1-22.3c0-10.3-9.5-19.7-21.1-19.7-11.6 0-21.2 9.4-21.2 19.7zM297.2 2.5h19.5l35.6 45.7h.2V2.5H372v74.8h-19.5L317 31.5h-.2v45.8h-19.5V2.5zM407.3 64.3l-5.1 13h-20.7l28.8-74.8h21.3l28.2 74.8H439l-4.9-13h-26.8zM421 25.6h-.2l-8 23.8H429l-8-23.8z"/>
    </g>
</svg>
